<svg width="24" height="23" viewBox="0 0 24 23" fill="none" xmlns="http://www.w3.org/2000/svg">
<path d="M5.707 21.207L19.4998 7.99957L15.0857 3.58557L1.293 16.793C1.16506 16.9211 1.07418 17.0814 1.03 17.257L0 22.5L5.242 21.47C5.418 21.426 5.579 21.335 5.707 21.207ZM22.4998 4.99957C22.8747 4.62452 23.0854 4.1159 23.0854 3.58557C23.0854 3.05524 22.8747 2.54663 22.4998 2.17157L20.9138 0.585573C20.5387 0.210631 20.0301 0 19.4998 0C18.9695 0 18.4608 0.210631 18.0858 0.585573L16.4997 2.17157L20.9138 6.58557L22.4998 4.99957Z" fill="#87868A"/>
</svg>
