<svg width="15" height="13" viewBox="0 0 15 13" fill="none" xmlns="http://www.w3.org/2000/svg">
<path d="M14.3184 12.4805V11.2049C14.3179 10.6397 14.1308 10.0905 13.7863 9.64378C13.4419 9.19702 12.9596 8.87794 12.4152 8.73662" stroke="white" stroke-linecap="round" stroke-linejoin="round"/>
<path d="M9.87741 1.0829C10.4233 1.22341 10.9071 1.54257 11.2526 1.99006C11.598 2.43755 11.7856 2.98792 11.7856 3.5544C11.7856 4.12088 11.598 4.67125 11.2526 5.11874C10.9071 5.56623 10.4233 5.88539 9.87741 6.0259" stroke="white" stroke-linecap="round" stroke-linejoin="round"/>
<path d="M10.6582 12.4805V11.2049C10.6582 10.5283 10.3909 9.87937 9.915 9.40092C9.43911 8.92248 8.79367 8.65369 8.12066 8.65369H3.04549C2.37248 8.65369 1.72703 8.92248 1.25115 9.40092C0.775256 9.87937 0.507904 10.5283 0.507904 11.2049V12.4805" fill="white"/>
<path d="M10.6582 12.4805V11.2049C10.6582 10.5283 10.3909 9.87937 9.915 9.40092C9.43911 8.92248 8.79367 8.65369 8.12066 8.65369H3.04549C2.37248 8.65369 1.72703 8.92248 1.25115 9.40092C0.775256 9.87937 0.507904 10.5283 0.507904 11.2049V12.4805H10.6582Z" stroke="white" stroke-linecap="round" stroke-linejoin="round"/>
<path d="M5.58324 6.10246C6.98471 6.10246 8.12083 4.96023 8.12083 3.55123C8.12083 2.14222 6.98471 1 5.58324 1C4.18177 1 3.04565 2.14222 3.04565 3.55123C3.04565 4.96023 4.18177 6.10246 5.58324 6.10246Z" fill="white" stroke="white" stroke-linecap="round" stroke-linejoin="round"/>
</svg>
