<svg width="11" height="11" viewBox="0 0 11 11" fill="none" xmlns="http://www.w3.org/2000/svg">
<path d="M7.99136 2.42496C8.68254 2.42496 9.24285 1.88211 9.24285 1.21248C9.24285 0.542845 8.68254 0 7.99136 0C7.30018 0 6.73987 0.542845 6.73987 1.21248C6.73987 1.88211 7.30018 2.42496 7.99136 2.42496Z" fill="white"/>
<path d="M9.74072 3.03906C9.79774 3.01261 9.86179 2.99769 9.92935 2.99769C10.1709 2.99769 10.3669 3.18751 10.3669 3.42157C10.3669 3.55039 10.3074 3.66585 10.2139 3.74361L8.71272 4.88173C8.59976 4.97232 8.45464 5.02677 8.29628 5.02677C8.15656 5.02677 8.02739 4.98436 7.92118 4.9121L6.9021 4.05884L7.40826 2.87595L8.41545 3.82713L9.74072 3.03906Z" fill="white"/>
<path d="M2.22564 7.59078L3.2287 5.66417L4.30101 6.70754L3.27861 8.36637L1.26561 9.46314C0.286218 9.87027 -0.176956 8.92925 0.512102 8.46948L2.22564 7.59078Z" fill="white"/>
<path d="M5.13598 10.1001C5.11652 10.1001 5.09652 10.0993 5.07518 10.0977C4.84682 10.0807 4.57415 9.9019 4.53226 9.6427C4.50118 9.45157 4.55793 9.25495 4.70089 9.05806L5.94995 7.33137L3.95854 6.63598C3.52264 6.52759 3.21916 6.14874 3.21916 5.71151C3.21916 5.58295 3.2451 5.45807 3.29644 5.34051L3.29807 5.33658L4.38525 3.17345L3.09295 2.97316L1.48718 3.74761L1.47475 3.75128C1.41718 3.76856 1.35719 3.77746 1.29639 3.77746C1.2699 3.77746 1.24315 3.77589 1.21666 3.77248C0.948045 3.73845 0.736175 3.53292 0.701854 3.27241C0.671858 3.04594 0.781576 2.82209 0.981014 2.70244L2.86919 1.61144L2.8873 1.60594C2.9454 1.5884 3.00593 1.57924 3.06701 1.57924H3.07458L6.0921 1.85153C6.8258 1.85572 7.42141 2.4469 7.42141 3.17318C7.42141 3.45097 7.32359 3.72248 7.13847 3.95838L7.13631 3.96126L5.85753 5.44236L7.14442 6.12518L7.16009 6.13513C7.38953 6.28227 7.67517 6.46528 7.75651 6.84884C7.80272 7.06615 7.75327 7.27456 7.60545 7.48611L7.60221 7.49082L5.67971 9.84665L5.66836 9.85608C5.48567 10.0108 5.34028 10.1001 5.13598 10.1001Z" fill="white"/>
</svg>
