<svg width="306" height="115" viewBox="0 0 306 115" fill="none" xmlns="http://www.w3.org/2000/svg">
<path d="M15.9229 98.2821C16.6156 102.132 19.7602 104.157 26.1585 102.823C30.971 101.805 34.5712 99.7714 34.5712 95.9938C34.5712 93.1515 32.885 91.8892 24.7093 91.5351C10.4816 90.9085 5.68742 87.6394 5.68742 80.1931C5.68742 69.5049 15.0115 60.4241 29.9137 57.273C47.8145 53.4772 53.9759 60.524 54.3587 68.3971L38.7456 71.7025C38.3263 69.2234 36.5672 66.6354 29.8499 68.0702C25.6755 68.9783 23.1598 71.4392 23.1598 74.1907C23.1598 77.1238 25.6116 77.5869 32.9214 77.823C48.1791 78.3769 52.1894 82.6994 52.1894 90.2456C52.1894 100.816 42.7468 110.223 25.3929 113.91C9.61575 117.252 0.966133 112.893 0 101.669L15.9229 98.2821Z" fill="white"/>
<path d="M75.4132 60.7691L58.5059 64.4014L61.0761 51.9062L111.297 41.2725L108.727 53.7678L91.8466 57.3365L83.1422 100.498L66.6633 103.985L75.4132 60.7691Z" fill="white"/>
<path d="M118.597 82.7539L112.719 94.1867L95.4648 97.8191L126.08 38.0761L147.627 33.5356L156.915 84.8334L140.272 88.3568L138.749 78.4677L118.597 82.7539ZM137.164 66.9078C135.942 58.735 135.04 51.5702 134.739 47.2295L134.502 47.2841C132.552 52.2422 128.97 60.2515 124.595 69.5684L137.164 66.9078Z" fill="white"/>
<path d="M182.581 59.6976L178.407 80.2839L162.238 83.7074L173.53 28.0508L201.949 22.0393C213.224 19.651 220.479 23.6103 220.479 32.4279C220.479 40.192 215.539 45.5951 209.204 48.9822C211.301 49.6633 215.584 51.7882 213.607 61.423C212.476 66.6172 212.021 70.6128 212.367 73.0919L196.389 76.4791C195.925 74.336 195.988 71.0305 197.447 64.3561C198.613 58.7078 197.966 56.4467 192.716 57.5545L182.581 59.6976ZM184.896 48.3103L195.04 46.1581C199.598 45.1865 203.316 42.6257 203.316 38.0943C203.316 34.8615 201.156 33.5538 197.082 34.3983L187.266 36.4779L184.896 48.3103Z" fill="white"/>
<path d="M242.263 25.4446L225.355 29.0225L227.925 16.5363L278.137 5.90259L275.567 18.3888L258.687 21.9667L249.983 65.1189L233.504 68.6151L242.263 25.4446Z" fill="white"/>
<path d="M278.666 59.0529L281.874 43.0978L297.059 39.8832L293.851 55.8382L278.666 59.0529ZM283.989 37.395L287.27 13.3852L289.275 3.54156L306.018 0L303.958 10.1615L297.423 34.5527L283.989 37.395Z" fill="white"/>
</svg>
