<svg width="25" height="25" viewBox="0 0 25 25" fill="none" xmlns="http://www.w3.org/2000/svg">
<circle cx="12.5" cy="12.5" r="11.5" fill="white" stroke="#EFEFEF"/>
<path d="M12.5 10.875C11.6192 10.875 10.875 11.6192 10.875 12.5C10.875 13.3808 11.6192 14.125 12.5 14.125C13.3808 14.125 14.125 13.3808 14.125 12.5C14.125 11.6192 13.3808 10.875 12.5 10.875Z" fill="#AAAAAA"/>
<path d="M16.8334 8.70837H15.4326L13.9663 7.24208C13.9161 7.19168 13.8564 7.15172 13.7907 7.12448C13.725 7.09724 13.6545 7.08327 13.5834 7.08337H11.4167C11.3456 7.08327 11.2751 7.09724 11.2094 7.12448C11.1437 7.15172 11.084 7.19168 11.0337 7.24208L9.56746 8.70837H8.16671C7.56925 8.70837 7.08337 9.19425 7.08337 9.79171V15.75C7.08337 16.3475 7.56925 16.8334 8.16671 16.8334H16.8334C17.4308 16.8334 17.9167 16.3475 17.9167 15.75V9.79171C17.9167 9.19425 17.4308 8.70837 16.8334 8.70837ZM12.5 15.2084C11.0321 15.2084 9.79171 13.968 9.79171 12.5C9.79171 11.0321 11.0321 9.79171 12.5 9.79171C13.968 9.79171 15.2084 11.0321 15.2084 12.5C15.2084 13.968 13.968 15.2084 12.5 15.2084Z" fill="#AAAAAA"/>
</svg>
