<svg width="29" height="30" viewBox="0 0 29 30" fill="none" xmlns="http://www.w3.org/2000/svg">
<path d="M19.0398 17.0782L19.0397 17.0788L17.6905 24.2307C17.6593 24.3962 17.7135 24.5664 17.8348 24.6833C17.956 24.8003 18.128 24.8483 18.2923 24.811L24.0694 23.5019C24.2634 23.4579 24.4129 23.3031 24.4501 23.1077L28.4912 1.88074C28.5227 1.71513 28.4687 1.54478 28.3474 1.42764C28.2262 1.3105 28.0541 1.26235 27.8896 1.29956L19.4271 3.21481C19.2693 3.25053 19.1385 3.36041 19.0762 3.50971C17.449 7.40392 15.6092 11.8533 14.348 15.1282C14.307 12.4022 14.1576 8.82501 14.0301 5.77304C14.0198 5.52832 14.0097 5.28697 13.9999 5.04972C13.9937 4.90148 13.922 4.76365 13.8042 4.67347C13.6864 4.5833 13.5346 4.55009 13.3899 4.58284L4.92744 6.49809C4.73336 6.54201 4.5838 6.69684 4.54662 6.89232L0.508808 28.1193C0.477303 28.285 0.531385 28.4553 0.652654 28.5724C0.773924 28.6895 0.94605 28.7377 1.11048 28.7004L6.39994 27.5021C6.59353 27.4582 6.74284 27.304 6.78042 27.1091L8.11335 20.1962L8.11342 20.1958C8.39314 18.7393 8.6508 17.2097 8.8813 15.7423C8.89713 16.4216 8.91377 17.1213 8.93083 17.8387C8.99311 20.4569 9.06099 23.311 9.11538 26.2721C9.11814 26.4224 9.18843 26.5636 9.30678 26.6564C9.42512 26.7491 9.57895 26.7837 9.72563 26.7506L14.6087 25.6457C14.7694 25.6094 14.9018 25.4963 14.9628 25.3433C16.0116 22.7134 16.9745 20.3322 17.8505 18.1658C18.5501 16.4358 19.1943 14.8427 19.7826 13.3694C19.5191 14.6295 19.264 15.8987 19.0398 17.0782Z" fill="#1162FF" stroke="#1162FF" stroke-linejoin="round"/>
</svg>
