<svg width="30" height="30" viewBox="0 0 30 30" fill="none" xmlns="http://www.w3.org/2000/svg">
<path d="M29 17.875L29 2C29 1.44772 28.5523 1 28 1L2 0.999999C1.44772 0.999999 1 1.44771 1 2L0.999999 17.875C0.999999 18.4273 1.44771 18.875 2 18.875L7.58823 18.875L22.4118 18.875L28 18.875C28.5523 18.875 29 18.4273 29 17.875Z" stroke="#1162FF" stroke-width="1.5" stroke-linecap="round" stroke-linejoin="round"/>
<path d="M29 22L29 28C29 28.5523 28.5523 29 28 29L2 29C1.44771 29 0.999999 28.5523 0.999999 28L0.999999 22" stroke="#1162FF" stroke-width="1.4" stroke-linecap="round"/>
</svg>
