<svg width="30" height="30" viewBox="0 0 30 30" fill="none" xmlns="http://www.w3.org/2000/svg">
<path d="M20.6 7.58824V2C20.6 1.44772 20.1523 1 19.6 1H2C1.44772 1 1 1.44771 1 2V28C1 28.5523 1.44772 29 2 29H19.6C20.1523 29 20.6 28.5523 20.6 28V22.4118" stroke="#1162FF" stroke-width="1.5" stroke-linecap="round" stroke-linejoin="round"/>
<path d="M23.3999 1.93332L27.9999 1.93332C28.5522 1.93332 28.9999 2.38103 28.9999 2.93332V27.0667C28.9999 27.6189 28.5522 28.0667 27.9999 28.0667H23.3999" stroke="#1162FF" stroke-width="1.4" stroke-linecap="round"/>
<path d="M26.3865 12.3184C26.3865 12.9905 26.1111 13.6351 25.621 14.1103C25.1309 14.5856 24.4662 14.8526 23.7731 14.8526H18.7329" stroke="#1162FF" stroke-width="1.7" stroke-linecap="round" stroke-linejoin="round"/>
<circle cx="11.2668" cy="15" r="2.3" fill="#1162FF" stroke="#1162FF"/>
<circle cx="11.2668" cy="15" r="4.16667" stroke="#1162FF"/>
</svg>
