<svg width="15" height="13" viewBox="0 0 15 13" fill="none" xmlns="http://www.w3.org/2000/svg">
<path d="M14.3035 12V10.7778C14.3031 10.2362 14.1229 9.71003 13.791 9.28197C13.4592 8.85392 12.9946 8.54818 12.4702 8.41278" stroke="#BCBCBC" stroke-linecap="round" stroke-linejoin="round"/>
<path d="M10.0256 1.08011C10.5514 1.21474 11.0175 1.52054 11.3503 1.9493C11.6831 2.37806 11.8638 2.90539 11.8638 3.44816C11.8638 3.99093 11.6831 4.51826 11.3503 4.94702C11.0175 5.37578 10.5514 5.68158 10.0256 5.81621" stroke="#BCBCBC" stroke-linecap="round" stroke-linejoin="round"/>
<path d="M10.7778 12V10.7778C10.7778 10.1295 10.5202 9.5077 10.0618 9.04928C9.60338 8.59086 8.98162 8.33332 8.33332 8.33332H3.44444C2.79613 8.33332 2.17438 8.59086 1.71596 9.04928C1.25754 9.5077 1 10.1295 1 10.7778V12" fill="#BCBCBC" stroke="#BCBCBC" stroke-linecap="round" stroke-linejoin="round"/>
<path d="M5.88902 5.88888C7.23905 5.88888 8.33346 4.79447 8.33346 3.44444C8.33346 2.09441 7.23905 1 5.88902 1C4.53899 1 3.44458 2.09441 3.44458 3.44444C3.44458 4.79447 4.53899 5.88888 5.88902 5.88888Z" fill="#BCBCBC" stroke="#BCBCBC" stroke-linecap="round" stroke-linejoin="round"/>
</svg>
